<?xml version="1.0" encoding="UTF-8"?>
<svg id="Layer_2" data-name="Layer 2" xmlns="http://www.w3.org/2000/svg" viewBox="0 0 186.81 186.79">
  <defs>
    <style>
      .cls-1 {
        font-family: MyriadPro-Regular, 'Myriad Pro';
        font-size: 22px;
      }
    </style>
  </defs>
  <g id="Layer_1-2" data-name="Layer 1">
    <text class="cls-1" transform="translate(168.48 89.05) rotate(90.93)"><tspan x="0" y="0">F</tspan></text>
    <text class="cls-1" transform="translate(168.41 99.25) rotate(98.89)"><tspan x="0" y="0">R</tspan></text>
    <text class="cls-1" transform="translate(166.86 110.43) rotate(108.81)"><tspan x="0" y="0">O</tspan></text>
    <text class="cls-1" transform="translate(162.21 124.16) rotate(119.64)"><tspan x="0" y="0">N</tspan></text>
    <text class="cls-1" transform="translate(155.27 136.16) rotate(128.85)"><tspan x="0" y="0">T</tspan></text>
    <text class="cls-1" transform="translate(148.56 144.28) rotate(134.47)"><tspan x="0" y="0"> </tspan></text>
    <text class="cls-1" transform="translate(145.69 147.45) rotate(140.04)"><tspan x="0" y="0">E</tspan></text>
    <text class="cls-1" transform="translate(137.95 154.18) rotate(149.21)"><tspan x="0" y="0">N</tspan></text>
    <text class="cls-1" transform="translate(126.12 161.32) rotate(159.85)"><tspan x="0" y="0">D</tspan></text>
    <text class="cls-1" transform="translate(112.75 165.93) rotate(166.89)"><tspan x="0" y="0"> </tspan></text>
    <text class="cls-1" transform="translate(108.71 167.21) rotate(173.93)"><tspan x="0" y="0">D</tspan></text>
    <text class="cls-1" transform="translate(94.74 168.59) rotate(-176.94)"><tspan x="0" y="0">E</tspan></text>
    <text class="cls-1" transform="translate(84.27 168.12) rotate(-168.41)"><tspan x="0" y="0">V</tspan></text>
    <text class="cls-1" transform="translate(72.81 165.75) rotate(-159.98)"><tspan x="0" y="0">E</tspan></text>
    <text class="cls-1" transform="translate(63.1 162.23) rotate(-152.23)"><tspan x="0" y="0">L</tspan></text>
    <text class="cls-1" transform="translate(55.04 158.31) rotate(-143.59)"><tspan x="0" y="0">O</tspan></text>
    <text class="cls-1" transform="translate(43.38 149.6) rotate(-133.87)"><tspan x="0" y="0">P</tspan></text>
    <text class="cls-1" transform="translate(35.65 141.56) rotate(-125.74)"><tspan x="0" y="0">E</tspan></text>
    <text class="cls-1" transform="translate(29.58 133.26) rotate(-117.51)"><tspan x="0" y="0">R</tspan></text>
    <text class="cls-1" transform="translate(24.45 123.06) rotate(-111.5)"><tspan x="0" y="0"> </tspan></text>
    <text class="cls-1" transform="translate(22.83 118.97) rotate(-108.12)"><tspan x="0" y="0"> </tspan></text>
    <text class="cls-1" transform="translate(21.38 114.91) rotate(-103.09)"><tspan x="0" y="0">*</tspan></text>
    <text class="cls-1" transform="translate(19.47 106.33) rotate(-98.06)"><tspan x="0" y="0"> </tspan></text>
    <text class="cls-1" transform="translate(18.85 101.98) rotate(-94.71)"><tspan x="0" y="0"> </tspan></text>
    <text class="cls-1" transform="translate(18.32 97.71) rotate(-89.07)"><tspan x="0" y="0">F</tspan></text>
    <text class="cls-1" transform="translate(18.4 87.52) rotate(-81.07)"><tspan x="0" y="0">R</tspan></text>
    <text class="cls-1" transform="translate(19.96 76.34) rotate(-71.15)"><tspan x="0" y="0">O</tspan></text>
    <text class="cls-1" transform="translate(24.6 62.64) rotate(-60.34)"><tspan x="0" y="0">N</tspan></text>
    <text class="cls-1" transform="translate(31.55 50.64) rotate(-51.13)"><tspan x="0" y="0">T</tspan></text>
    <text class="cls-1" transform="translate(38.26 42.52) rotate(-45.51)"><tspan x="0" y="0"> </tspan></text>
    <text class="cls-1" transform="translate(41.16 39.33) rotate(-39.92)"><tspan x="0" y="0">E</tspan></text>
    <text class="cls-1" transform="translate(48.88 32.62) rotate(-30.77)"><tspan x="0" y="0">N</tspan></text>
    <text class="cls-1" transform="translate(60.71 25.49) rotate(-20.13)"><tspan x="0" y="0">D</tspan></text>
    <text class="cls-1" transform="translate(74.11 20.88) rotate(-13.07)"><tspan x="0" y="0"> </tspan></text>
    <text class="cls-1" transform="translate(78.12 19.6) rotate(-6.05)"><tspan x="0" y="0">D</tspan></text>
    <text class="cls-1" transform="translate(92.13 18.23) rotate(3.11)"><tspan x="0" y="0">E</tspan></text>
    <text class="cls-1" transform="translate(102.56 18.71) rotate(11.61)"><tspan x="0" y="0">V</tspan></text>
    <text class="cls-1" transform="translate(114.05 21.09) rotate(20.07)"><tspan x="0" y="0">E</tspan></text>
    <text class="cls-1" transform="translate(123.73 24.6) rotate(27.8)"><tspan x="0" y="0">L</tspan></text>
    <text class="cls-1" transform="translate(131.82 28.54) rotate(36.45)"><tspan x="0" y="0">O</tspan></text>
    <text class="cls-1" transform="translate(143.44 37.24) rotate(46.15)"><tspan x="0" y="0">P</tspan></text>
    <text class="cls-1" transform="translate(151.2 45.3) rotate(54.3)"><tspan x="0" y="0">E</tspan></text>
    <text class="cls-1" transform="translate(157.26 53.61) rotate(62.53)"><tspan x="0" y="0">R</tspan></text>
    <text class="cls-1" transform="translate(162.37 63.79) rotate(68.52)"><tspan x="0" y="0"> </tspan></text>
    <text class="cls-1" transform="translate(163.99 67.9) rotate(71.92)"><tspan x="0" y="0"> </tspan></text>
    <text class="cls-1" transform="translate(165.44 71.97) rotate(76.96)"><tspan x="0" y="0">*</tspan></text>
    <text class="cls-1" transform="translate(167.34 80.53) rotate(81.97)"><tspan x="0" y="0"> </tspan></text>
    <text class="cls-1" transform="translate(167.96 84.9) rotate(85.33)"><tspan x="0" y="0"> </tspan></text>
  </g>
</svg>